<svg width="50" height="50" viewBox="0 0 50 50" fill="none" xmlns="http://www.w3.org/2000/svg">
<path d="M39.8576 27.501C35.3627 27.501 31.7188 31.1482 31.7188 35.6476C31.7188 40.1469 35.3627 43.7941 39.8576 43.7941C44.3526 43.7941 47.9965 40.1468 47.9965 35.6476C47.9965 31.1483 44.3526 27.501 39.8576 27.501ZM39.8576 39.781C37.5769 39.781 35.7281 37.9303 35.7281 35.6476C35.7281 33.3648 37.5769 31.5141 39.8576 31.5141C42.1384 31.5141 43.9872 33.3646 43.9872 35.6476C43.9872 37.9305 42.1383 39.781 39.8576 39.781Z" fill="#888888"/>
<path d="M23.784 27.5069V33.6469H19.7783V37.66H23.784V43.8H27.7933V27.5069H23.784Z" fill="#888888"/>
<path d="M18.1523 38.2486L10.1387 30.2274L2.125 38.2486L4.96011 41.0862L10.1387 35.9028L15.3173 41.0862L18.1523 38.2486Z" fill="#888888"/>
<path d="M35.732 19.28V7H31.7227V23.2931H35.732H48.0004V19.28H35.732Z" fill="#888888"/>
<path d="M27.7935 7H23.7842V23.2931H27.7935V7Z" fill="#888888"/>
<path d="M10.1389 7C5.64392 7 2 10.6474 2 15.1466C2 19.6458 5.64392 23.2931 10.1389 23.2931C14.6338 23.2931 18.2777 19.6458 18.2777 15.1466C18.2777 10.6474 14.6338 7 10.1389 7ZM10.1389 19.28C7.85812 19.28 6.0093 17.4295 6.0093 15.1466C6.0093 12.8637 7.85812 11.0131 10.1389 11.0131C12.4196 11.0131 14.2685 12.8637 14.2685 15.1466C14.2685 17.4295 12.4196 19.28 10.1389 19.28Z" fill="#888888"/>
</svg>
