<svg width="24" height="24" viewBox="0 0 24 24" fill="none" xmlns="http://www.w3.org/2000/svg">
<path d="M6 15H18.5C20.433 15 22 13.433 22 11.5C22 9.567 20.433 8 18.5 8H17.917C17.441 5.16229 14.973 3 12 3C9.38235 3 7.15622 4.67628 6.3365 7.01395C6.22556 7.00471 6.11333 7 6 7C3.79086 7 2 8.79086 2 11C2 13.2091 3.79086 15 6 15Z" fill="white"/>
<path d="M9 21C9.55229 21 10 20.5523 10 20C10 19.4477 9.55229 19 9 19C8.44771 19 8 19.4477 8 20C8 20.5523 8.44771 21 9 21Z" fill="#67A4FF"/>
<path d="M13 17C13 17.5523 12.5523 18 12 18C11.4477 18 11 17.5523 11 17C11 16.4477 11.4477 16 12 16C12.5523 16 13 16.4477 13 17Z" fill="#67A4FF"/>
<path d="M5.87612 16L5.28845 17.763C5.15746 18.156 5.36983 18.5807 5.76279 18.7117C6.15575 18.8427 6.58049 18.6303 6.71147 18.2374L7.45726 16H5.87612Z" fill="#3C89FF"/>
<path d="M16.5428 16L15.2884 19.763C15.1575 20.156 15.3698 20.5807 15.7628 20.7117C16.1557 20.8427 16.5805 20.6303 16.7115 20.2374L18.1239 16H16.5428Z" fill="#3C89FF"/>
</svg>
