<svg width="24" height="24" viewBox="0 0 24 24" fill="none" xmlns="http://www.w3.org/2000/svg">
<path d="M11.25 21.25C11.25 21.6642 11.5858 22 12 22C12.4143 22 12.75 21.6642 12.75 21.25V19.5L13.55 20.1C13.8814 20.3485 14.3515 20.2814 14.6 19.95C14.8486 19.6186 14.7814 19.1485 14.45 18.9L12.75 17.625V13.2992L16.4965 15.4622L16.7507 17.572C16.8002 17.9832 17.1738 18.2764 17.585 18.2269C17.9963 18.1773 18.2895 17.8038 18.2399 17.3926L18.1203 16.3997L19.6359 17.2747C19.9946 17.4819 20.4533 17.3589 20.6604 17.0002C20.8675 16.6415 20.7446 16.1828 20.3859 15.9757L18.8703 15.1007L19.7899 14.7079C20.1708 14.5452 20.3477 14.1045 20.185 13.7236C20.0223 13.3426 19.5816 13.1658 19.2007 13.3285L17.2465 14.1632L13.5006 12.0005L17.2465 9.83777L19.2007 10.6725C19.5816 10.8352 20.0223 10.6583 20.185 10.2774C20.3477 9.8965 20.1708 9.4558 19.7899 9.29309L18.8703 8.90027L20.3859 8.02527C20.7446 7.81816 20.8675 7.35947 20.6604 7.00075C20.4533 6.64203 19.9946 6.51912 19.6359 6.72623L18.1203 7.60123L18.2399 6.60841C18.2895 6.19717 17.9963 5.82363 17.585 5.77408C17.1738 5.72454 16.8002 6.01775 16.7507 6.42899L16.4965 8.53873L12.75 10.7018V6.375L14.45 5.1C14.7814 4.85147 14.8486 4.38137 14.6 4.05C14.3515 3.71863 13.8814 3.65147 13.55 3.9L12.75 4.5V2.75C12.75 2.33579 12.4143 2 12 2C11.5858 2 11.25 2.33579 11.25 2.75V4.5L10.45 3.9C10.1187 3.65147 9.64857 3.71863 9.40004 4.05C9.15151 4.38137 9.21867 4.85147 9.55004 5.1L11.25 6.375V10.7011L7.50372 8.53821L7.24954 6.42847C7.2 6.01723 6.82646 5.72402 6.41522 5.77356C6.00398 5.82311 5.71077 6.19665 5.76031 6.60789L5.87993 7.60071L4.36438 6.72571C4.00566 6.5186 3.54697 6.64151 3.33986 7.00023C3.13276 7.35895 3.25566 7.81764 3.61438 8.02475L5.12993 8.89975L4.21031 9.29257C3.8294 9.45528 3.6525 9.89598 3.81522 10.2769C3.97793 10.6578 4.41863 10.8347 4.79954 10.672L6.75372 9.83725L10.5006 12.0005L6.75372 14.1637L4.79954 13.329C4.41863 13.1663 3.97793 13.3432 3.81522 13.7241C3.6525 14.105 3.8294 14.5457 4.21031 14.7084L5.12993 15.1012L3.61438 15.9762C3.25566 16.1833 3.13276 16.642 3.33986 17.0007C3.54697 17.3595 4.00566 17.4824 4.36438 17.2753L5.87993 16.4003L5.76031 17.3931C5.71077 17.8043 6.00398 18.1779 6.41522 18.2274C6.82646 18.277 7.2 17.9838 7.24954 17.5725L7.50372 15.4628L11.25 13.2998V17.625L9.55004 18.9C9.21867 19.1485 9.15151 19.6186 9.40004 19.95C9.64857 20.2814 10.1187 20.3485 10.45 20.1L11.25 19.5V21.25Z" fill="#67A4FF"/>
</svg>
