<svg width="24" height="24" viewBox="0 0 24 24" fill="none" xmlns="http://www.w3.org/2000/svg">
<path d="M11.25 2.75C11.25 2.33579 11.5858 2 12 2C12.4142 2 12.75 2.33579 12.75 2.75V4.25C12.75 4.66421 12.4142 5 12 5C11.5858 5 11.25 4.66421 11.25 4.25V2.75Z" fill="#FFBF44"/>
<path d="M11.25 19.75C11.25 19.3358 11.5858 19 12 19C12.4142 19 12.75 19.3358 12.75 19.75V21.25C12.75 21.6642 12.4142 22 12 22C11.5858 22 11.25 21.6642 11.25 21.25V19.75Z" fill="#FFBF44"/>
<path d="M12 18C15.3137 18 18 15.3137 18 12C18 8.68629 15.3137 6 12 6C8.68629 6 6 8.68629 6 12C6 15.3137 8.68629 18 12 18Z" fill="#FFBF44"/>
<path d="M2 12C2 12.4142 2.33579 12.75 2.75 12.75H4.25C4.66421 12.75 5 12.4142 5 12C5 11.5858 4.66421 11.25 4.25 11.25H2.75C2.33579 11.25 2 11.5858 2 12Z" fill="#FFBF44"/>
<path d="M19 12C19 12.4142 19.3358 12.75 19.75 12.75H21.25C21.6642 12.75 22 12.4142 22 12C22 11.5858 21.6642 11.25 21.25 11.25H19.75C19.3358 11.25 19 11.5858 19 12Z" fill="#FFBF44"/>
<path d="M4.9289 4.92893C4.63601 5.22183 4.63601 5.6967 4.9289 5.98959L5.98956 7.05025C6.28246 7.34315 6.75733 7.34315 7.05022 7.05025C7.34312 6.75736 7.34312 6.28249 7.05022 5.98959L5.98956 4.92893C5.69667 4.63604 5.2218 4.63604 4.9289 4.92893Z" fill="#FFBF44"/>
<path d="M16.9496 16.9497C16.6568 17.2426 16.6568 17.7175 16.9496 18.0104L18.0103 19.0711C18.3032 19.364 18.7781 19.364 19.071 19.0711C19.3639 18.7782 19.3639 18.3033 19.071 18.0104L18.0103 16.9497C17.7174 16.6569 17.2425 16.6569 16.9496 16.9497Z" fill="#FFBF44"/>
<path d="M19.071 4.92865C18.7781 4.63576 18.3033 4.63576 18.0104 4.92865L16.9497 5.98931C16.6568 6.28221 16.6568 6.75708 16.9497 7.04997C17.2426 7.34287 17.7175 7.34287 18.0104 7.04997L19.071 5.98931C19.3639 5.69642 19.3639 5.22155 19.071 4.92865Z" fill="#FFBF44"/>
<path d="M7.05022 16.9495C6.75733 16.6566 6.28245 16.6566 5.98956 16.9495L4.9289 18.0101C4.63601 18.303 4.63601 18.7779 4.9289 19.0708C5.22179 19.3637 5.69667 19.3637 5.98956 19.0708L7.05022 18.0101C7.34311 17.7172 7.34311 17.2424 7.05022 16.9495Z" fill="#FFBF44"/>
</svg>
