<svg width="24" height="24" viewBox="0 0 24 24" fill="none" xmlns="http://www.w3.org/2000/svg">
<path d="M14.811 10.5C14.1449 7.91216 11.7958 6 9 6C5.68629 6 3 8.68629 3 12C3 15.3137 5.68629 18 9 18H17.25C19.3211 18 21 16.3211 21 14.25C21 12.1789 19.3211 10.5 17.25 10.5H14.811Z" fill="white"/>
<path fill-rule="evenodd" clip-rule="evenodd" d="M19.8028 10.2436C19.9307 9.85219 19.9999 9.43417 19.9999 9C19.9999 6.79086 18.209 5 15.9999 5C14.8346 5 13.7858 5.49825 13.0547 6.29332C14.1705 7.08754 15.0434 8.2008 15.5403 9.5H17.2499C18.1896 9.5 19.0655 9.77284 19.8028 10.2436Z" fill="#FFBF44"/>
</svg>
