<svg width="24" height="24" viewBox="0 0 24 24" fill="none" xmlns="http://www.w3.org/2000/svg">
<path d="M6 15H18.5C20.433 15 22 13.433 22 11.5C22 9.567 20.433 8 18.5 8H17.917C17.441 5.16229 14.973 3 12 3C9.38235 3 7.15622 4.67628 6.3365 7.01395C6.22556 7.00471 6.11333 7 6 7C3.79086 7 2 8.79086 2 11C2 13.2091 3.79086 15 6 15Z" fill="white"/>
<path d="M5.28845 17.763L5.87612 16H7.45726L6.71147 18.2374C6.58049 18.6303 6.15575 18.8427 5.76279 18.7117C5.36983 18.5807 5.15746 18.156 5.28845 17.763Z" fill="#3C89FF"/>
<path d="M8.28845 19.763L9.54279 16H11.1239L9.71147 20.2374C9.58049 20.6303 9.15575 20.8427 8.76279 20.7117C8.36983 20.5807 8.15746 20.156 8.28845 19.763Z" fill="#3C89FF"/>
<path d="M12.2884 17.763L12.8761 16H14.4573L13.7115 18.2374C13.5805 18.6303 13.1557 18.8427 12.7628 18.7117C12.3698 18.5807 12.1575 18.156 12.2884 17.763Z" fill="#3C89FF"/>
<path d="M15.2884 19.763L16.5428 16H18.1239L16.7115 20.2374C16.5805 20.6303 16.1557 20.8427 15.7628 20.7117C15.3698 20.5807 15.1575 20.156 15.2884 19.763Z" fill="#3C89FF"/>
</svg>
