<svg width="24" height="24" viewBox="0 0 24 24" fill="none" xmlns="http://www.w3.org/2000/svg">
<path d="M12.5 8.25C12.5 5.90279 14.4028 4 16.75 4C19.0972 4 21 5.90279 21 8.25C21 10.5972 19.0972 12.5 16.75 12.5H13.25C12.8358 12.5 12.5 12.1642 12.5 11.75C12.5 11.3358 12.8361 11 13.2503 11H16.75C18.2688 11 19.5 9.76878 19.5 8.25C19.5 6.73122 18.2688 5.5 16.75 5.5C15.2312 5.5 14 6.73122 14 8.25C14 8.66421 13.6642 9 13.25 9C12.8358 9 12.5 8.66421 12.5 8.25Z" fill="white"/>
<path d="M3 11.75C3 11.3358 3.33579 11 3.75 11H10.75C11.1642 11 11.5 11.3358 11.5 11.75C11.5 12.1642 11.1642 12.5 10.75 12.5H3.75C3.33579 12.5 3 12.1642 3 11.75Z" fill="white"/>
<path d="M6 14.25C6 13.8358 6.33579 13.5 6.75 13.5H13.75C15.5449 13.5 17 14.9551 17 16.75C17 18.5449 15.5449 20 13.75 20C11.9551 20 10.5 18.5449 10.5 16.75C10.5 16.3358 10.8358 16 11.25 16C11.6642 16 12 16.3358 12 16.75C12 17.7165 12.7835 18.5 13.75 18.5C14.7165 18.5 15.5 17.7165 15.5 16.75C15.5 15.7835 14.7165 15 13.75 15H6.75C6.33579 15 6 14.6642 6 14.25Z" fill="white"/>
</svg>
