<svg width="24" height="24" viewBox="0 0 24 24" fill="none" xmlns="http://www.w3.org/2000/svg">
<path d="M6 15H18.5C20.433 15 22 13.433 22 11.5C22 9.567 20.433 8 18.5 8H17.917C17.441 5.16229 14.973 3 12 3C9.38235 3 7.15622 4.67628 6.3365 7.01395C6.22556 7.00471 6.11333 7 6 7C3.79086 7 2 8.79086 2 11C2 13.2091 3.79086 15 6 15Z" fill="#CCCCCC"/>
<path d="M9.68349 17.1799L10.6667 16H13.3334L13.1667 17H13.9325C14.3565 17 14.588 17.4944 14.3167 17.8201L11.1805 21.5835C10.854 21.9752 10.2194 21.6842 10.3032 21.1812L10.8334 18H10.0676C9.64369 18 9.41211 17.5056 9.68349 17.1799Z" fill="#FFBF44"/>
</svg>
