<svg width="24" height="24" viewBox="0 0 24 24" fill="none" xmlns="http://www.w3.org/2000/svg">
<path fill-rule="evenodd" clip-rule="evenodd" d="M9.5 13V4C9.5 3.72386 9.27614 3.5 9 3.5C8.72386 3.5 8.5 3.72386 8.5 4V13V15V16.563C7.63739 16.785 7 17.5681 7 18.5C7 19.6046 7.89543 20.5 9 20.5C10.1046 20.5 11 19.6046 11 18.5C11 17.5681 10.3626 16.785 9.5 16.563V15V13ZM11 15V15.6273C11.9067 16.2598 12.5 17.3106 12.5 18.5C12.5 20.433 10.933 22 9 22C7.067 22 5.5 20.433 5.5 18.5C5.5 17.3106 6.09326 16.2598 7 15.6273V15V4C7 2.89543 7.89543 2 9 2C10.1046 2 11 2.89543 11 4V15Z" fill="#CCCCCC"/>
<path d="M16.2803 8.71967C15.9874 8.42678 15.5126 8.42678 15.2197 8.71967L13.2197 10.7197C12.9268 11.0126 12.9268 11.4874 13.2197 11.7803C13.5126 12.0732 13.9874 12.0732 14.2803 11.7803L15 11.0607V14.75C15 15.1642 15.3358 15.5 15.75 15.5C16.1642 15.5 16.5 15.1642 16.5 14.75V11.0607L17.2197 11.7803C17.5126 12.0732 17.9874 12.0732 18.2803 11.7803C18.5732 11.4874 18.5732 11.0126 18.2803 10.7197L16.2803 8.71967Z" fill="#FC4F4F"/>
</svg>
