<svg width="24" height="24" viewBox="0 0 24 24" fill="none" xmlns="http://www.w3.org/2000/svg">
<path fill-rule="evenodd" clip-rule="evenodd" d="M9.5 13V4C9.5 3.72386 9.27614 3.5 9 3.5C8.72386 3.5 8.5 3.72386 8.5 4V13V15V16.563C7.63739 16.785 7 17.5681 7 18.5C7 19.6046 7.89543 20.5 9 20.5C10.1046 20.5 11 19.6046 11 18.5C11 17.5681 10.3626 16.785 9.5 16.563V15V13ZM11 15V15.6273C11.9067 16.2598 12.5 17.3106 12.5 18.5C12.5 20.433 10.933 22 9 22C7.067 22 5.5 20.433 5.5 18.5C5.5 17.3106 6.09326 16.2598 7 15.6273V15V4C7 2.89543 7.89543 2 9 2C10.1046 2 11 2.89543 11 4V15Z" fill="#CCCCCC"/>
<path d="M16.2803 15.2803C15.9874 15.5732 15.5126 15.5732 15.2197 15.2803L13.2197 13.2803C12.9268 12.9874 12.9268 12.5126 13.2197 12.2197C13.5126 11.9268 13.9874 11.9268 14.2803 12.2197L15 12.9393V9.25C15 8.83579 15.3358 8.5 15.75 8.5C16.1642 8.5 16.5 8.83579 16.5 9.25V12.9393L17.2197 12.2197C17.5126 11.9268 17.9874 11.9268 18.2803 12.2197C18.5732 12.5126 18.5732 12.9874 18.2803 13.2803L16.2803 15.2803Z" fill="#4AD871"/>
</svg>
