<svg width="24" height="24" viewBox="0 0 24 24" fill="none" xmlns="http://www.w3.org/2000/svg">
<path d="M19.335 15.517C20.1754 15.4049 20.9206 16.2079 20.4689 16.9255C19.1289 19.054 17.0087 20.642 14.5096 21.2878C14.8211 20.7646 15 20.1532 15 19.5C15 17.567 13.433 16 11.5 16H10.584C9.8124 14.2341 8.05032 13 6 13C4.59976 13 3.33396 13.5756 2.42629 14.5031C2.14904 13.5859 2 12.613 2 11.6053C2 8.03768 3.86829 4.90638 6.67986 3.13644C7.39742 2.68472 8.20045 3.42993 8.08833 4.27039C8.03007 4.70709 8 5.1527 8 5.60534C8 11.1282 12.4772 15.6053 18 15.6053C18.4526 15.6053 18.8983 15.5753 19.335 15.517Z" fill="#FFBF44"/>
<path d="M9.87398 17C9.42994 15.2748 7.86384 14 6 14C3.79086 14 2 15.7909 2 18C2 20.2091 3.79086 22 6 22H11.5C12.8807 22 14 20.8807 14 19.5C14 18.1193 12.8807 17 11.5 17H9.87398Z" fill="#CCCCCC"/>
</svg>
