<svg width="24" height="24" viewBox="0 0 24 24" fill="none" xmlns="http://www.w3.org/2000/svg">
<path d="M8.7047 6.75651C8.84626 6.36724 8.64544 5.93691 8.25617 5.79536C7.86689 5.6538 7.43657 5.85462 7.29501 6.2439L6.69502 7.8939C6.55346 8.28317 6.75428 8.71349 7.14355 8.85505C7.53283 8.9966 7.96315 8.79579 8.1047 8.40651L8.7047 6.75651Z" fill="#3C89FF"/>
<path d="M7.30471 10.6065C7.44626 10.2172 7.24544 9.78692 6.85617 9.64537C6.46689 9.50381 6.03657 9.70463 5.89501 10.0939L4.69501 13.3939C4.55346 13.7832 4.75428 14.2135 5.14355 14.355C5.53283 14.4966 5.96316 14.2958 6.10471 13.9065L7.30471 10.6065Z" fill="#3C89FF"/>
<path d="M5.30481 16.1065C5.44636 15.7172 5.24554 15.2869 4.85627 15.1454C4.46699 15.0038 4.03667 15.2046 3.89511 15.5939L3.29511 17.2439C3.15356 17.6332 3.35438 18.0635 3.74365 18.205C4.13293 18.3466 4.56325 18.1458 4.70481 17.7565L5.30481 16.1065Z" fill="#3C89FF"/>
<path d="M16.7047 6.75651C16.8463 6.36724 16.6454 5.93691 16.2562 5.79536C15.8669 5.6538 15.4366 5.85462 15.295 6.2439L14.695 7.8939C14.5535 8.28317 14.7543 8.71349 15.1436 8.85505C15.5328 8.9966 15.9632 8.79579 16.1047 8.40651L16.7047 6.75651Z" fill="#3C89FF"/>
<path d="M15.3047 10.6065C15.4463 10.2172 15.2454 9.78692 14.8562 9.64537C14.4669 9.50381 14.0366 9.70463 13.895 10.0939L12.695 13.3939C12.5535 13.7832 12.7543 14.2135 13.1436 14.355C13.5328 14.4966 13.9632 14.2958 14.1047 13.9065L15.3047 10.6065Z" fill="#3C89FF"/>
<path d="M13.3048 16.1065C13.4464 15.7172 13.2455 15.2869 12.8563 15.1454C12.467 15.0038 12.0367 15.2046 11.8951 15.5939L11.2951 17.2439C11.1536 17.6332 11.3544 18.0635 11.7437 18.205C12.1329 18.3466 12.5633 18.1458 12.7048 17.7565L13.3048 16.1065Z" fill="#3C89FF"/>
<path d="M12.2563 5.79536C12.6455 5.93691 12.8464 6.36724 12.7048 6.75651L8.7048 17.7565C8.56325 18.1458 8.13293 18.3466 7.74365 18.205C7.35438 18.0635 7.15356 17.6332 7.29511 17.2439L11.2951 6.2439C11.4367 5.85462 11.867 5.6538 12.2563 5.79536Z" fill="#3C89FF"/>
<path d="M20.7048 6.75651C20.8464 6.36724 20.6455 5.93691 20.2563 5.79536C19.867 5.6538 19.4367 5.85462 19.2951 6.2439L15.2951 17.2439C15.1536 17.6332 15.3544 18.0635 15.7437 18.205C16.1329 18.3466 16.5633 18.1458 16.7048 17.7565L20.7048 6.75651Z" fill="#3C89FF"/>
</svg>
