<svg width="24" height="24" viewBox="0 0 24 24" fill="none" xmlns="http://www.w3.org/2000/svg">
<path d="M18.5 15H6C3.79086 15 2 13.2091 2 11C2 8.79086 3.79086 7 6 7C6.11333 7 6.22556 7.00471 6.3365 7.01395C7.15622 4.67628 9.38235 3 12 3C14.973 3 17.441 5.16229 17.917 8H18.5C20.433 8 22 9.567 22 11.5C22 13.433 20.433 15 18.5 15Z" fill="#CCCCCC"/>
<path d="M6 18C6.55228 18 7 17.5523 7 17C7 16.4477 6.55228 16 6 16C5.44772 16 5 16.4477 5 17C5 17.5523 5.44772 18 6 18Z" fill="#67A4FF"/>
<path d="M10 20C10 20.5523 9.55229 21 9 21C8.44771 21 8 20.5523 8 20C8 19.4477 8.44771 19 9 19C9.55229 19 10 19.4477 10 20Z" fill="#67A4FF"/>
<path d="M15 21C15.5523 21 16 20.5523 16 20C16 19.4477 15.5523 19 15 19C14.4477 19 14 19.4477 14 20C14 20.5523 14.4477 21 15 21Z" fill="#67A4FF"/>
<path d="M13 17C13 17.5523 12.5523 18 12 18C11.4477 18 11 17.5523 11 17C11 16.4477 11.4477 16 12 16C12.5523 16 13 16.4477 13 17Z" fill="#67A4FF"/>
<path d="M18 18C18.5523 18 19 17.5523 19 17C19 16.4477 18.5523 16 18 16C17.4477 16 17 16.4477 17 17C17 17.5523 17.4477 18 18 18Z" fill="#67A4FF"/>
</svg>
