<svg width="24" height="24" viewBox="0 0 24 24" fill="none" xmlns="http://www.w3.org/2000/svg">
<path fill-rule="evenodd" clip-rule="evenodd" d="M11.25 2.75C11.25 2.33579 11.5858 2 12 2C12.4142 2 12.75 2.33579 12.75 2.75V4.25C12.75 4.66421 12.4142 5 12 5C11.5858 5 11.25 4.66421 11.25 4.25V2.75ZM17.6586 14H6.34141C6.12031 13.3744 6 12.7013 6 12C6 8.68629 8.68629 6 12 6C15.3137 6 18 8.68629 18 12C18 12.7013 17.8797 13.3744 17.6586 14ZM2 12C2 12.4142 2.33579 12.75 2.75 12.75H4.25C4.66421 12.75 5 12.4142 5 12C5 11.5858 4.66421 11.25 4.25 11.25H2.75C2.33579 11.25 2 11.5858 2 12ZM19.75 12.75C19.3358 12.75 19 12.4142 19 12C19 11.5858 19.3358 11.25 19.75 11.25H21.25C21.6642 11.25 22 11.5858 22 12C22 12.4142 21.6642 12.75 21.25 12.75H19.75ZM4.92893 4.92893C4.63604 5.22183 4.63604 5.6967 4.92893 5.98959L5.98959 7.05025C6.28249 7.34315 6.75736 7.34315 7.05025 7.05025C7.34315 6.75736 7.34315 6.28249 7.05025 5.98959L5.98959 4.92893C5.6967 4.63604 5.22183 4.63604 4.92893 4.92893ZM19.071 4.92865C18.7781 4.63576 18.3033 4.63576 18.0104 4.92865L16.9497 5.98931C16.6568 6.28221 16.6568 6.75708 16.9497 7.04997C17.2426 7.34287 17.7175 7.34287 18.0104 7.04997L19.071 5.98931C19.3639 5.69642 19.3639 5.22155 19.071 4.92865Z" fill="#FFBF44"/>
<path d="M2.75 15C2.33579 15 2 15.3358 2 15.75C2 16.1642 2.33579 16.5 2.75 16.5H9.25C9.66421 16.5 10 16.1642 10 15.75C10 15.3358 9.66421 15 9.25 15H2.75Z" fill="#CCCCCC"/>
<path d="M14.75 15C14.3358 15 14 15.3358 14 15.75C14 16.1642 14.3358 16.5 14.75 16.5H21.25C21.6642 16.5 22 16.1642 22 15.75C22 15.3358 21.6642 15 21.25 15H14.75Z" fill="#CCCCCC"/>
<path d="M14.5303 19.7803L12.5303 21.7803C12.2374 22.0732 11.7626 22.0732 11.4697 21.7803L9.46967 19.7803C9.17678 19.4874 9.17678 19.0126 9.46967 18.7197C9.76256 18.4268 10.2374 18.4268 10.5303 18.7197L11.25 19.4393V15.75C11.25 15.3358 11.5858 15 12 15C12.4142 15 12.75 15.3358 12.75 15.75V19.4393L13.4697 18.7197C13.7626 18.4268 14.2374 18.4268 14.5303 18.7197C14.8232 19.0126 14.8232 19.4874 14.5303 19.7803Z" fill="#CCCCCC"/>
</svg>
