<svg width="24" height="24" viewBox="0 0 24 24" fill="none" xmlns="http://www.w3.org/2000/svg">
<path fill-rule="evenodd" clip-rule="evenodd" d="M11.25 2.75C11.25 2.33579 11.5858 2 12 2C12.4142 2 12.75 2.33579 12.75 2.75V4.25C12.75 4.66421 12.4142 5 12 5C11.5858 5 11.25 4.66421 11.25 4.25V2.75ZM17.6586 14H6.34141C6.12031 13.3744 6 12.7013 6 12C6 8.68629 8.68629 6 12 6C15.3137 6 18 8.68629 18 12C18 12.7013 17.8797 13.3744 17.6586 14ZM2 12C2 12.4142 2.33579 12.75 2.75 12.75H4.25C4.66421 12.75 5 12.4142 5 12C5 11.5858 4.66421 11.25 4.25 11.25H2.75C2.33579 11.25 2 11.5858 2 12ZM19.75 12.75C19.3358 12.75 19 12.4142 19 12C19 11.5858 19.3358 11.25 19.75 11.25H21.25C21.6642 11.25 22 11.5858 22 12C22 12.4142 21.6642 12.75 21.25 12.75H19.75ZM4.92893 4.92893C4.63604 5.22183 4.63604 5.6967 4.92893 5.98959L5.98959 7.05025C6.28249 7.34315 6.75736 7.34315 7.05025 7.05025C7.34315 6.75736 7.34315 6.28249 7.05025 5.98959L5.98959 4.92893C5.6967 4.63604 5.22183 4.63604 4.92893 4.92893ZM19.071 4.92865C18.7781 4.63576 18.3033 4.63576 18.0104 4.92865L16.9497 5.98931C16.6568 6.28221 16.6568 6.75708 16.9497 7.04997C17.2426 7.34287 17.7175 7.34287 18.0104 7.04997L19.071 5.98931C19.3639 5.69642 19.3639 5.22155 19.071 4.92865Z" fill="#FFBF44"/>
<path d="M2.75 15C2.33579 15 2 15.3358 2 15.75C2 16.1642 2.33579 16.5 2.75 16.5H8.25C8.66421 16.5 9 16.1642 9 15.75C9 15.3358 8.66421 15 8.25 15H2.75Z" fill="#CCCCCC"/>
<path d="M15.75 15C15.3358 15 15 15.3358 15 15.75C15 16.1642 15.3358 16.5 15.75 16.5H21.25C21.6642 16.5 22 16.1642 22 15.75C22 15.3358 21.6642 15 21.25 15H15.75Z" fill="#CCCCCC"/>
<path d="M12.5303 15.2197C12.2374 14.9268 11.7626 14.9268 11.4697 15.2197L9.46967 17.2197C9.17678 17.5126 9.17678 17.9874 9.46967 18.2803C9.76256 18.5732 10.2374 18.5732 10.5303 18.2803L11.25 17.5607V21.25C11.25 21.6642 11.5858 22 12 22C12.4142 22 12.75 21.6642 12.75 21.25V17.5607L13.4697 18.2803C13.7626 18.5732 14.2374 18.5732 14.5303 18.2803C14.8232 17.9874 14.8232 17.5126 14.5303 17.2197L12.5303 15.2197Z" fill="#CCCCCC"/>
</svg>
